<svg xmlns="http://www.w3.org/2000/svg" viewBox="0 0 47 18" width="47" height="18">
	<style>
		tspan { white-space:pre }
		.shp0 { fill: #f436b8 } 
	</style>
	<g id="Object">
		<path id="Shape 3" class="shp0" d="M39.06 9.63C34.96 13.13 31.47 13.13 27.38 9.63C24.71 7.34 22.43 7.34 19.76 9.63C15.7 13.09 12.39 13.09 8.34 9.63C5.64 7.32 3.81 7.32 1.11 9.63L0 7.93C3.28 5.13 6.04 5.01 9.45 7.93C12.67 10.68 15.04 11.01 18.64 7.93C22.06 5.01 25.23 5.15 28.49 7.93C31.84 10.8 34.46 10.91 37.94 7.93C41.36 5.01 43.59 5.01 47 7.93L45.89 9.63C43.14 7.28 41.8 7.28 39.06 9.63ZM39.06 3.88C34.96 7.38 31.47 7.38 27.38 3.88C24.71 1.6 22.43 1.6 19.76 3.88C15.7 7.35 12.39 7.35 8.34 3.88C5.64 1.57 3.81 1.57 1.11 3.88L0 2.19C3.28 -0.62 6.04 -0.73 9.45 2.19C12.67 4.94 15.04 5.26 18.64 2.19C22.06 -0.73 25.23 -0.6 28.49 2.19C31.84 5.05 34.46 5.16 37.94 2.19C41.36 -0.73 43.59 -0.73 47 2.19L45.89 3.88C43.14 1.53 41.8 1.53 39.06 3.88ZM9.45 13.68C12.67 16.43 15.04 16.75 18.64 13.68C22.06 10.76 25.23 10.89 28.49 13.68C31.84 16.54 34.46 16.65 37.94 13.68C41.36 10.76 43.59 10.76 47 13.68L45.89 15.37C43.14 13.02 41.8 13.02 39.06 15.37C34.96 18.87 31.47 18.87 27.38 15.37C24.71 13.09 22.43 13.09 19.76 15.37C15.7 18.84 12.39 18.84 8.34 15.37C5.64 13.06 3.81 13.06 1.11 15.37L0 13.68C3.28 10.87 6.04 10.76 9.45 13.68Z" />
	</g>
</svg>